<mxfile host="app.diagrams.net" modified="2023-09-12T07:28:24.246Z" agent="Mozilla/5.0 (Windows NT 10.0; Win64; x64) AppleWebKit/537.36 (KHTML, like Gecko) Chrome/116.0.0.0 Safari/537.36 Edg/116.0.1938.76" version="21.7.4" etag="o7ILRWJUQ4JKR1ZqiJH5" type="github">
  <diagram name="Page-1" id="HBPqQYpMNdoGJflMpl0N">
    <mxGraphModel>
      <root>
        <mxCell id="0" />
        <mxCell id="1" parent="0" />
      </root>
    </mxGraphModel>
  </diagram>
</mxfile>
